<?xml version='1.0' encoding='utf-8'?>
<svg xmlns="http://www.w3.org/2000/svg" viewBox="0 0 990 765"> <g transform="translate(-8.7205 12.548)"> <path d="m494.91 588.46 18.868-0.62689 17.717-6.4016 17.717 6.4016h301.18l-354.33-407.48-313.03-3.0178 311.88 411.12z" fill-rule="evenodd" stroke="#000" stroke-width="5"/> <path d="m850.39 463.82c-35.433 35.433-45.249 70.866-42.977 106.3h-311.35l53.15-106.3h301.18" fill="#fff" fill-rule="evenodd" stroke="#000" stroke-width="5"/> <path d="m212.59 91.781-35.438 88.562 318.91 407.5 53.156-106.31h17.719l17.719 7.5625 17.719-7.5625h283.44l-354.31-389.75h-273.28l-16.969 6.7812-17.719-6.7812h-10.938z" fill-rule="evenodd" stroke="#000" stroke-width="5"/> <path transform="translate(306.4 -244.29)" d="m140.33 381.75 155.64 184.63" fill="none" stroke="#fff" stroke-linecap="round" stroke-width="25"/> <path transform="translate(306.4 -244.29)" d="m270.81 442.36-169.72-1e-5" fill="none" stroke="#fff" stroke-linecap="round" stroke-width="25"/> <path d="m551.32 525.51c3.9879 4.8816 5.653 11.295 8.0145 17.026 2.9672 6.1318 2.2954 13.101 2.2815 19.756 0.96033 6.6492-1.1452 11.864-3.679 17.713-8.9496 9.652-43.629 26.275-5.7843 4.9706 7.7003-4.3347-30.892 17.174-23.22 12.791l17.19-9.7474-0.89824 0.59945c-40.019 23.298-11.455 6.6353-1.8428 1.1634 3.8136-2.171-5.4858 7.3552-6.0124 11.712-1.7511 5.187-4.5234 9.7117-5.6325 15.012 1.3897 6.1262 5.0636 8.8684 9.9245 12.334 3.4174 2.1534 6.7759 4.248 10.038 6.6036l-17.732 11.348c-3.3242-2.37-6.7477-4.5213-10.15-6.7963-5.3298-3.812-9.0938-7.2816-10.79-13.837 0.54985-5.8096 2.6576-10.311 5.4439-15.438 1.8977-17.795 41.805-36.075 7.1331-14.385 7.3134-4.2617 44.222-25.44 5.07-2.5252-7.257 4.2473 29.108-16.851 21.873-12.566-23.562 13.959-20.234 13.19-13.947 7.1648 2.7029-5.4501 5.3827-10.016 4.3187-16.598 0.01613-6.2592 0.72135-12.856-1.7949-18.697-2.3496-5.7586-4.0536-12.113-7.9788-17.071-2.6425-4.189-5.9973-7.863-8.4894-11.974 0 0 24.29-2.3994 26.663 1.4409z"/> </g> </svg>